#!OML:ASF H:\LiuWeirdWalks\Patient Classification 1\Patient 1\Session 1\male.ASF
:FULLY-SPECIFIED
:DEGREES
388
root 1.01819 16.4622 23.8081 0.682292 20.6476 0.182789
lowerback 8.47421 -0.116978 -1.98191
upperback -1.16232 -0.33301 0.540267
thorax -5.96074 -0.0874486 1.72488
lowerneck -15.6214 -4.73539 -1.09828
upperneck 14.3326 -6.46854 1.61163
head 7.04084 -3.01714 0.0173449
rclavicle -1.09282e-013 -8.44835e-016
rhumerus -40.7574 -25.0826 -48.2862
rradius 55.557
rwrist -17.6319
rhand -31.0459 -0.77595
rfingers 7.12502
rthumb -4.32742 -30.7117
lclavicle -1.09282e-013 -8.44835e-016
lhumerus -58.3943 23.7027 39.0793
lradius 33.1288
lwrist 33.587
lhand -36.0932 9.26206
lfingers 7.12502
lthumb -9.19977 39.0414
rfemur -40.6987 -7.79265 13.9649
rtibia 33.2064
rfoot 10.7526 -18.2288
rtoes -14.8864
lfemur 19.1855 -6.0819 -13.9885
ltibia 34.7966
lfoot 2.578 6.78077
ltoes -25.9947
389
root 1.01725 16.4884 24.0684 0.441447 19.8313 -0.17835
lowerback 8.65297 -0.195991 -1.63277
upperback -1.31434 -0.390706 0.777207
thorax -6.22058 -0.119249 1.7867
lowerneck -15.7317 -4.47909 -0.699821
upperneck 14.2696 -6.10606 1.02291
head 7.00155 -2.87562 -0.198148
rclavicle -2.96562e-014 -1.71949e-014
rhumerus -40.2009 -24.3856 -49.6212
rradius 53.8714
rwrist -17.1254
rhand -27.9726 -1.46017
rfingers 7.12502
rthumb -1.35949 -31.4356
lclavicle -2.96562e-014 -1.71949e-014
lhumerus -58.9167 23.6359 40.4298
lradius 32.6641
lwrist 34.6708
lhand -34.9319 9.77962
lfingers 7.12502
lthumb -8.07904 39.6052
rfemur -41.092 -8.39328 15.3459
rtibia 35.4045
rfoot 11.1295 -16.231
rtoes -7.01887
lfemur 18.1714 -6.13358 -13.8032
ltibia 37.5072
lfoot 5.03266 5.28318
ltoes -23.9806
390
root 1.01565 16.5229 24.3215 0.212002 19.2275 -0.408216
lowerback 8.86777 -0.30708 -1.45407
upperback -1.43934 -0.506697 1.02396
thorax -6.46958 -0.17404 1.96458
lowerneck -15.7814 -4.25912 -0.35295
upperneck 14.1678 -5.78822 0.469117
head 6.94598 -2.75596 -0.397307
rclavicle 3.06284e-014 1.41137e-014
rhumerus -39.6625 -23.6623 -50.8275
rradius 52.0621
rwrist -16.4346
rhand -24.6535 -1.84406
rfingers 7.12502
rthumb 1.84627 -31.8158
lclavicle 3.06284e-014 1.41137e-014
lhumerus -59.2391 23.5458 42.1226
lradius 32.1012
lwrist 35.266
lhand -33.4294 9.64438
lfingers 7.12502
lthumb -6.62878 39.5206
rfemur -41.2441 -8.99492 16.4286
rtibia 37.4378
rfoot 10.4529 -14.8284
rtoes -2.55068
lfemur 17.0018 -6.34098 -13.7903
ltibia 40.3556
lfoot 7.37587 3.90527
ltoes -20.7172
391
root 1.01231 16.5653 24.5685 -0.050259 18.8217 -0.588929
lowerback 9.07701 -0.45185 -1.39767
upperback -1.49373 -0.677808 1.2957
thorax -6.63674 -0.252049 2.24668
lowerneck -15.8284 -4.06471 -0.021626
upperneck 14.025 -5.51337 -0.0214627
head 6.88211 -2.65218 -0.577789
rclavicle 1.05604e-014 5.96354e-016
rhumerus -39.1213 -22.9914 -51.9285
rradius 50.1797
rwrist -15.4451
rhand -21.0899 -1.82938
rfingers 7.12502
rthumb 5.28759 -31.7434
lclavicle 1.05604e-014 5.96354e-016
lhumerus -59.285 23.4765 44.151
lradius 31.4226
lwrist 35.28
lhand -31.7912 8.9121
lfingers 7.12502
lthumb -5.04713 38.832
rfemur -41.1128 -9.54426 17.2857
rtibia 39.1282
rfoot 9.2093 -13.9149
rtoes -1.2055
lfemur 15.729 -6.68039 -13.8512
ltibia 43.304
lfoot 9.19359 2.93984
ltoes -17.7305
392
root 1.00706 16.6158 24.811 -0.353464 18.6238 -0.739772
lowerback 9.20967 -0.62716 -1.4436
upperback -1.43428 -0.899255 1.58259
thorax -6.63387 -0.35342 2.60853
lowerneck -15.9528 -3.9108 0.276875
upperneck 13.8824 -5.30714 -0.398179
head 6.83783 -2.57222 -0.72554
rclavicle 2.0773e-014 6.75868e-015
rhumerus -38.5594 -22.4574 -52.937
rradius 48.2755
rwrist -14.163
rhand -17.3935 -1.59558
rfingers 7.12502
rthumb 8.85563 -31.3898
lclavicle 2.0773e-014 6.75868e-015
lhumerus -58.9592 23.4966 46.4614
lradius 30.6258
lwrist 34.5525
lhand -29.9378 7.66192
lfingers 7.12502
lthumb -3.25737 37.6168
rfemur -40.6703 -10.0691 17.9578
rtibia 40.3655
rfoot 7.84223 -13.4041
rtoes -1.72821
lfemur 14.3824 -7.1268 -13.9437
ltibia 46.3011
lfoot 10.4386 2.47087
ltoes -15.8579
393
root 0.998804 16.674 25.048 -0.698131 18.608 -0.93696
lowerback 9.29008 -0.866381 -1.54701
upperback -1.29252 -1.21199 1.87994
thorax -6.50424 -0.500212 3.02511
lowerneck -16.1569 -3.73893 0.68955
upperneck 13.7809 -5.11595 -0.714515
head 6.82041 -2.48736 -0.876208
rclavicle -1.09332e-014 -8.74653e-015
rhumerus -37.9698 -22.0258 -53.9625
rradius 46.38
rwrist -12.5735
rhand -13.6518 -1.2189
rfingers 7.12502
rthumb 12.4649 -30.8272
lclavicle -1.09332e-014 -8.74653e-015
lhumerus -58.3104 23.5517 48.9376
lradius 29.7734
lwrist 33.0704
lhand -27.9427 6.12729
lfingers 7.12502
lthumb -1.33056 36.1029
rfemur -39.9474 -10.4835 18.525
rtibia 41.1163
rfoot 6.8391 -13.2096
rtoes -2.20853
lfemur 12.9405 -7.64531 -13.9662
ltibia 49.3054
lfoot 11.0386 2.50105
ltoes -14.8422
394
root 0.988194 16.7377 25.2799 -1.07583 18.7223 -1.21381
lowerback 9.32659 -1.10792 -1.618
upperback -1.11033 -1.52344 2.19175
thorax -6.3028 -0.649869 3.43578
lowerneck -16.3872 -3.62152 1.04242
upperneck 13.7438 -5.011 -0.892579
head 6.83411 -2.43411 -0.983459
rclavicle -8.67198e-015 8.74653e-015
rhumerus -37.4999 -21.7972 -54.8431
rradius 44.521
rwrist -10.6779
rhand -9.96173 -0.815943
rfingers 7.12502
rthumb 16.0205 -30.1736
lclavicle -8.67198e-015 8.74653e-015
lhumerus -57.2783 23.4371 51.7044
lradius 28.9169
lwrist 30.772
lhand -25.7815 4.46619
lfingers 7.12502
lthumb 0.756777 34.4446
rfemur -38.987 -10.71 19.0306
rtibia 41.4449
rfoot 6.12677 -13.3142
rtoes -2.61107
lfemur 11.4046 -8.17295 -13.8687
ltibia 52.2617
lfoot 10.9932 2.9269
ltoes -14.8064
395
root 0.977667 16.806 25.5045 -1.45036 18.9231 -1.57341
lowerback 9.3298 -1.32649 -1.58571
upperback -0.931489 -1.79272 2.50425
thorax -6.08809 -0.783592 3.78062
lowerneck -16.6283 -3.58627 1.27756
upperneck 13.8061 -5.01977 -0.909642
head 6.88847 -2.42605 -1.03379
rclavicle 6.77359e-014 7.95139e-016
rhumerus -37.2309 -21.7188 -55.5603
rradius 42.7491
rwrist -8.61272
rhand -6.48441 -0.453457
rfingers 7.12502
rthumb 19.3666 -29.5091
lclavicle 6.77359e-014 7.95139e-016
lhumerus -55.8904 23.0195 54.7513
lradius 28.0967
lwrist 27.5986
lhand -23.3511 2.67588
lfingers 7.12502
lthumb 3.10399 32.633
rfemur -37.8752 -10.7795 19.5209
rtibia 41.4478
rfoot 5.63566 -13.6269
rtoes -3.04431
lfemur 9.75377 -8.67014 -13.6504
ltibia 55.1178
lfoot 10.4216 3.55079
ltoes -15.1633
396
root 0.968523 16.8789 25.7216 -1.79431 19.1363 -2.00612
lowerback 9.33188 -1.49227 -1.42077
upperback -0.801538 -1.97702 2.81166
thorax -5.93321 -0.878714 4.03363
lowerneck -16.8654 -3.64918 1.34456
upperneck 13.9773 -5.15051 -0.771113
head 6.98489 -2.46965 -1.02172
rclavicle -2.08972e-014 3.97569e-015
rhumerus -37.1893 -21.7727 -56.0839
rradius 41.0132
rwrist -6.46412
rhand -3.36323 -0.152077
rfingers 7.12502
rthumb 22.3653 -28.8775
lclavicle -2.08972e-014 3.97569e-015
lhumerus -54.2481 22.0688 58.153
lradius 27.5028
lwrist 23.9433
lhand -20.7346 0.855601
lfingers 7.12502
lthumb 5.63059 30.7608
rfemur -36.6957 -10.6974 20.0274
rtibia 41.2404
rfoot 5.22995 -14.0797
rtoes -3.39568
lfemur 7.98655 -9.0768 -13.3275
ltibia 57.8152
lfoot 9.55028 4.1299
ltoes -15.2423
397
root 0.962058 16.9556 25.9306 -2.0771 19.2993 -2.46056
lowerback 9.32211 -1.59277 -1.15474
upperback -0.708644 -2.06366 3.10697
thorax -5.82172 -0.927829 4.20345
lowerneck -17.1969 -3.80091 1.2262
upperneck 14.3011 -5.38461 -0.498068
head 7.1555 -2.55721 -0.952697
rclavicle 5.06404e-014 2.38542e-014
rhumerus -37.3073 -21.9265 -56.4597
rradius 39.3068
rwrist -4.34909
rhand -0.743451 0.0678306
rfingers 7.12502
rthumb 24.8781 -28.3333
lclavicle 5.06404e-014 2.38542e-014
lhumerus -52.4485 20.5471 61.8669
lradius 27.2551
lwrist 20.1464
lhand -17.9776 -0.971334
lfingers 7.12502
lthumb 8.29195 28.8459
rfemur -35.524 -10.5064 20.5395
rtibia 40.8895
rfoot 4.87704 -14.5763
rtoes -3.6459
lfemur 6.11465 -9.35115 -12.9681
ltibia 60.3101
lfoot 8.53424 4.54887
ltoes -15.1003
398
root 0.95954 17.0364 26.1327 -2.28403 19.3977 -2.85358
lowerback 9.28779 -1.64188 -0.871007
upperback -0.65339 -2.082 3.36823
thorax -5.74335 -0.943147 4.31802
lowerneck -17.533 -3.99548 1.03199
upperneck 14.6852 -5.66447 -0.203083
head 7.35095 -2.66662 -0.871277
rclavicle 6.61704e-014 -1.98785e-014
rhumerus -37.5343 -22.0994 -56.7545
rradius 37.6025
rwrist -2.38853
rhand 1.26401 0.219052
rfingers 7.12502
rthumb 26.8005 -27.9021
lclavicle 6.61704e-014 -1.98785e-014
lhumerus -50.6891 18.4102 65.7777
lradius 27.4919
lwrist 16.5626
lhand -15.0615 -2.91996
lfingers 7.12502
lthumb 11.1054 26.7662
rfemur -34.3837 -10.3203 21.0041
rtibia 40.4515
rfoot 4.52703 -15.015
rtoes -3.75969
lfemur 4.18023 -9.49548 -12.6888
ltibia 62.5628
lfoot 7.77818 4.72256
ltoes -14.0074
399
root 0.958688 17.1205 26.3298 -2.45578 19.3772 -3.23625
lowerback 9.21528 -1.64742 -0.583572
upperback -0.563304 -2.04378 3.62983
thorax -5.61141 -0.931749 4.42022
lowerneck -18.0279 -4.18782 0.847499
upperneck 15.1027 -5.93338 0.017035
head 7.58409 -2.77477 -0.819817
rclavicle 1.20762e-014 -7.95139e-015
rhumerus -37.691 -22.335 -57.0511
rradius 35.8635
rwrist -0.577647
rhand 2.62459 0.316942
rfingers 7.12502
rthumb 28.1018 -27.5977
lclavicle 1.20762e-014 -7.95139e-015
lhumerus -49.0062 15.8788 69.7122
lradius 28.2276
lwrist 13.2024
lhand -12.1874 -4.81842
lfingers 7.12502
lthumb 13.8764 24.6986
rfemur -33.2709 -10.0554 21.479
rtibia 39.9308
rfoot 4.20953 -15.4204
rtoes -3.78776
lfemur 2.23184 -9.46786 -12.4167
ltibia 64.5625
lfoot 7.10415 4.74407
ltoes -12.8892
400
root 0.963268 17.2064 26.522 -2.57309 19.3172 -3.46528
lowerback 9.12161 -1.62982 -0.349871
upperback -0.478113 -1.98645 3.82004
thorax -5.47489 -0.910225 4.47407
lowerneck -18.4718 -4.39046 0.663141
upperneck 15.4917 -6.20368 0.17453
head 7.7991 -2.88936 -0.788451
rclavicle 8.77137e-015 7.95139e-016
rhumerus -37.8968 -22.6087 -57.331
rradius 34.1326
rwrist 1.03003
rhand 3.35282 0.320619
rfingers 7.12502
rthumb 28.7976 -27.4778
lclavicle 8.77137e-015 7.95139e-016
lhumerus -47.5805 13.0189 73.4585
lradius 29.486
lwrist 10.0212
lhand -9.39369 -6.63088
lfingers 7.12502
lthumb 16.5674 22.6819
rfemur -32.1582 -9.94059 21.8175
rtibia 39.3408
rfoot 3.90447 -15.6406
rtoes -3.81612
lfemur 0.321758 -9.36378 -12.3671
ltibia 66.3003
lfoot 6.49466 4.74035
ltoes -12.6278
401
root 0.969654 17.2925 26.7105 -2.67045 19.2113 -3.60359
lowerback 9.00257 -1.63471 -0.193035
upperback -0.366722 -1.97343 3.95275
thorax -5.29244 -0.910145 4.51451
lowerneck -18.8921 -4.52629 0.640628
upperneck 15.8142 -6.39891 0.19872
head 7.97964 -2.97265 -0.816949
rclavicle 2.89977e-014 -3.73715e-014
rhumerus -38.0491 -22.8888 -57.7277
rradius 32.4222
rwrist 2.46354
rhand 3.54083 0.248218
rfingers 7.12502
rthumb 28.9772 -27.5195
lclavicle 2.89977e-014 -3.73715e-014
lhumerus -46.447 10.1385 76.77
lradius 31.2571
lwrist 6.94993
lhand -6.69875 -8.22369
lfingers 7.12502
lthumb 19.1605 20.8525
rfemur -31.0288 -9.89707 22.0876
rtibia 38.6788
rfoot 3.64208 -15.7552
rtoes -3.8545
lfemur -1.54102 -9.17019 -12.4355
ltibia 67.7927
lfoot 5.88504 4.70613
ltoes -12.5706
402
root 0.976052 17.3774 26.8963 -2.78829 19.0819 -3.73085
lowerback 8.90723 -1.62917 -0.00860638
upperback -0.267121 -1.946 4.04392
thorax -5.13934 -0.903392 4.49496
lowerneck -19.1977 -4.65845 0.670375
upperneck 16.0432 -6.58692 0.153269
head 8.10533 -3.05856 -0.871975
rclavicle -1.25731e-014 -4.6118e-014
rhumerus -38.2964 -23.2877 -58.0789
rradius 30.7483
rwrist 3.7729
rhand 3.30056 0.110524
rfingers 7.12502
rthumb 28.7477 -27.6963
lclavicle -1.25731e-014 -4.6118e-014
lhumerus -45.611 7.28182 79.6412
lradius 33.5058
lwrist 4.08275
lhand -4.13242 -9.44559
lfingers 7.12502
lthumb 21.6268 19.3667
rfemur -29.8708 -9.89821 22.3623
rtibia 37.9609
rfoot 3.4098 -15.8302
rtoes -3.86735
lfemur -3.34694 -8.90884 -12.5202
ltibia 69.058
lfoot 5.22452 4.65306
ltoes -12.6287
